@startuml
'https://plantuml.com/class-diagram
skinparam classFontSize 10
skinparam classAttributeIconSize 0
skinparam defaultTextAlignment center
skinparam nodesep 50
skinparam ranksep 1
skinparam noteArrowLength 2
hide circle

class ":CommandHandler" {
  + {static} executeCommand(): void
  + {static} cleanup(): void
  + {static} setClock(): void
}

class ":Command" {
  + type: CommandType
  + desc: String
  + substring: String
  + isSorted: boolean
  + message: String
  + datetime0: DateTimeArg
  + datetime1: DateTimeArg
  + indexes: LinkedHashSet<Integer>
  + index: int
  + duration: long
  + interval: Duration
  + snoozeDuration: Duration
}

class ":XYZList" {
}
note bottom of ":XYZList" : XYZList represents:\nTaskList, ReminderList, HabitList

class ":Timer" {
  + Timer()
  + Timer()
  + start(): void
  + pause(): void
  + resume(): void
  + reset(): void
  + getRemainingTime(): long
  + getState(): TimerState
  + getLabel(): String
  + toString(): String
}

class ":MessageHandler" {
  + {static} sendMessage(): void
}
note bottom of ":MessageHandler" : Contains other\nprinting related functions

class ":IndexValidator" {
  + {static} validateIndexes(): void
  + {static} validateIndex(): void
}

class ":StudyMateException" {
  + StudyMateException(message: String)
}

":CommandHandler" ..> ":Command" : uses
":CommandHandler" ..> ":XYZList" : uses
":CommandHandler" ..> ":Timer" : manages
":CommandHandler" ..> ":MessageHandler" : uses
":CommandHandler" ..> ":IndexValidator" : uses
":CommandHandler" ..> ":StudyMateException" : throws

@enduml